<svg version="1.1" id="Layer_1" xmlns="http://www.w3.org/2000/svg" xmlns:xlink="http://www.w3.org/1999/xlink" x="0px" y="0px"
	 width="100%" viewBox="0 0 2100 2100" enable-background="new 0 0 2100 2100" xml:space="preserve">
<path fill="#000000" opacity="1.000000" stroke="none" 
	d="
M1168.000000,2102.000000 
	C778.712769,2102.000000 390.425537,2102.000000 2.069162,2102.000000 
	C2.069162,1402.129272 2.069162,702.258423 2.069162,2.193831 
	C701.787659,2.193831 1401.575317,2.193831 2101.681641,2.193831 
	C2101.681641,701.999878 2101.681641,1401.999878 2101.681641,2102.000000 
	C1790.924316,2102.000000 1479.962158,2102.000000 1168.000000,2102.000000 
M1805.061646,1666.586792 
	C1818.705444,1669.864990 1830.607422,1666.729858 1841.273315,1657.541504 
	C1843.772217,1655.388672 1847.655518,1654.160645 1851.030151,1653.834961 
	C1861.161987,1652.856934 1870.526855,1650.206177 1879.199707,1644.677368 
	C1906.459595,1627.299683 1929.905273,1605.558472 1949.952026,1580.475708 
	C2016.649414,1497.023560 2052.918213,1402.501099 2052.368896,1294.784668 
	C2052.235596,1268.605713 2049.080078,1242.958374 2041.383667,1217.967529 
	C2039.438721,1211.652100 2040.116455,1207.347290 2045.673340,1203.392334 
	C2048.837402,1201.140259 2051.358398,1197.764893 2053.631104,1194.518921 
	C2062.119385,1182.395386 2068.068604,1169.026733 2072.010010,1154.796265 
	C2079.789551,1126.706787 2080.502441,1098.205444 2075.588867,1069.651245 
	C2069.668213,1035.245361 2057.625244,1003.432861 2033.041382,977.609131 
	C2028.182739,972.505310 2028.102295,968.128113 2031.011597,961.705505 
	C2053.845703,911.296509 2064.470703,857.890320 2067.410645,802.975830 
	C2068.545654,781.778198 2067.227783,760.402954 2066.218018,739.147095 
	C2064.501709,703.007568 2057.286133,667.807312 2045.615356,633.610107 
	C2032.333862,594.693542 2013.473633,558.955811 1983.400635,530.095703 
	C1955.123535,502.959076 1921.451172,489.358673 1882.085205,490.338623 
	C1857.278320,490.956207 1839.495728,510.600281 1843.168091,535.376404 
	C1844.104126,541.691406 1843.006104,548.840210 1840.917480,554.947571 
	C1837.707275,564.335083 1833.552002,573.575012 1828.535156,582.137756 
	C1809.787109,614.135925 1784.243774,640.390442 1756.467041,664.495483 
	C1706.525635,707.835327 1650.811768,742.198669 1590.639038,769.398743 
	C1578.566772,774.855835 1566.126709,779.499390 1553.539307,784.647766 
	C1552.166626,781.877319 1550.957275,780.227051 1550.496704,778.389221 
	C1542.299561,745.676575 1523.775146,719.143188 1500.716064,695.396301 
	C1471.427002,665.233643 1437.157227,641.716736 1400.513916,621.548523 
	C1324.472168,579.695557 1243.131348,552.988953 1157.866455,537.964905 
	C1137.249512,534.332092 1116.343018,532.317017 1095.546997,529.739502 
	C1087.254395,528.711731 1087.160034,528.057617 1087.152588,520.054626 
	C1087.141846,508.463135 1087.388428,496.599030 1085.126831,485.332642 
	C1078.145020,450.552887 1051.753784,426.625244 1016.607361,421.854828 
	C1009.451111,420.883514 1002.212952,420.516144 994.364197,419.812225 
	C994.364197,417.918427 994.301208,415.978058 994.374146,414.042847 
	C994.998535,397.473267 996.783325,380.856384 996.081970,364.344482 
	C993.721375,308.772949 968.941772,265.557770 921.652405,236.042740 
	C877.658447,208.584503 828.883362,201.829300 778.377258,206.863052 
	C728.118835,211.872131 680.999329,228.330795 635.737061,250.333939 
	C588.208618,273.438721 544.102051,302.041046 501.827667,333.595154 
	C437.616760,381.522949 376.881866,433.310486 323.891541,493.708466 
	C251.720581,575.968445 193.866394,667.489685 148.021835,766.672058 
	C113.242599,841.915222 86.753395,920.034363 68.789581,1000.992737 
	C57.881081,1050.154663 50.753731,1099.915405 48.649384,1150.190674 
	C47.567051,1176.048950 45.298218,1201.968384 47.593288,1227.958252 
	C49.464649,1249.149902 49.684017,1270.494507 51.783306,1291.657593 
	C57.148731,1345.746460 70.541374,1397.806030 93.071625,1447.395020 
	C111.220619,1487.340820 135.837799,1522.495239 168.935638,1551.641357 
	C206.543564,1584.759033 249.804810,1607.696899 296.841675,1624.002075 
	C347.287872,1641.489136 399.497345,1649.228760 452.625305,1651.658691 
	C488.634369,1653.305664 524.510498,1652.160400 560.156799,1646.297119 
	C562.933838,1645.840454 565.851196,1646.237183 567.156250,1646.237183 
	C571.442078,1656.219116 574.214233,1665.215576 578.902832,1673.067505 
	C588.700378,1689.475586 601.437195,1703.764038 615.947205,1716.086060 
	C685.038147,1774.759155 764.305054,1805.102539 855.682495,1800.086060 
	C882.583008,1798.609131 908.384521,1791.859985 931.703735,1777.838135 
	C964.671936,1758.013916 984.629883,1729.781250 986.379761,1690.343506 
	C986.609741,1685.160156 986.411316,1679.958008 986.411316,1674.911377 
	C1038.980103,1661.885742 1066.172607,1628.584595 1070.523438,1576.540771 
	C1074.988770,1575.717285 1078.553711,1574.667725 1082.167969,1574.453979 
	C1117.579224,1572.360352 1150.784790,1561.733032 1183.269409,1548.394653 
	C1239.739136,1525.207886 1291.151489,1493.224365 1340.188965,1457.269287 
	C1387.833862,1422.335205 1432.324829,1383.722168 1473.373535,1341.186890 
	C1476.557617,1337.887573 1479.936890,1334.776733 1482.371216,1332.409058 
	C1493.019531,1337.698975 1502.381104,1342.586426 1511.945312,1347.038574 
	C1522.811035,1352.096436 1534.160645,1356.182983 1544.775513,1361.700439 
	C1601.427124,1391.147095 1649.380249,1431.530640 1690.413452,1480.106201 
	C1730.596436,1527.675537 1762.376831,1580.023193 1778.661743,1640.869141 
	C1782.058838,1653.562500 1790.841675,1662.035522 1805.061646,1666.586792 
z"/>
<path fill="#464767" opacity="1.000000" stroke="none" 
	d="
M1804.277466,1666.386841 
	C1790.841675,1662.035522 1782.058838,1653.562500 1778.661743,1640.869141 
	C1762.376831,1580.023193 1730.596436,1527.675537 1690.413452,1480.106201 
	C1649.380249,1431.530640 1601.427124,1391.147095 1544.775513,1361.700439 
	C1534.160645,1356.182983 1522.811035,1352.096436 1511.945312,1347.038574 
	C1502.381104,1342.586426 1493.019531,1337.698975 1482.371216,1332.409058 
	C1479.936890,1334.776733 1476.557617,1337.887573 1473.373535,1341.186890 
	C1432.324829,1383.722168 1387.833862,1422.335205 1340.188965,1457.269287 
	C1291.151489,1493.224365 1239.739136,1525.207886 1183.269409,1548.394653 
	C1150.784790,1561.733032 1117.579224,1572.360352 1082.167969,1574.453979 
	C1078.553711,1574.667725 1074.988770,1575.717285 1070.523438,1576.540771 
	C1066.172607,1628.584595 1038.980103,1661.885742 986.411316,1674.911377 
	C986.411316,1679.958008 986.609741,1685.160156 986.379761,1690.343506 
	C984.629883,1729.781250 964.671936,1758.013916 931.703735,1777.838135 
	C908.384521,1791.859985 882.583008,1798.609131 855.682495,1800.086060 
	C764.305054,1805.102539 685.038147,1774.759155 615.947205,1716.086060 
	C601.437195,1703.764038 588.700378,1689.475586 578.902832,1673.067505 
	C574.214233,1665.215576 571.442078,1656.219116 567.156250,1646.237183 
	C565.851196,1646.237183 562.933838,1645.840454 560.156799,1646.297119 
	C524.510498,1652.160400 488.634369,1653.305664 452.625305,1651.658691 
	C399.497345,1649.228760 347.287872,1641.489136 296.841675,1624.002075 
	C249.804810,1607.696899 206.543564,1584.759033 168.935638,1551.641357 
	C135.837799,1522.495239 111.220619,1487.340820 93.071625,1447.395020 
	C70.541374,1397.806030 57.148731,1345.746460 51.783306,1291.657593 
	C49.684017,1270.494507 49.464649,1249.149902 47.593288,1227.958252 
	C45.298218,1201.968384 47.567051,1176.048950 48.649384,1150.190674 
	C50.753731,1099.915405 57.881081,1050.154663 68.789581,1000.992737 
	C86.753395,920.034363 113.242599,841.915222 148.021835,766.672058 
	C193.866394,667.489685 251.720581,575.968445 323.891541,493.708466 
	C376.881866,433.310486 437.616760,381.522949 501.827667,333.595154 
	C544.102051,302.041046 588.208618,273.438721 635.737061,250.333939 
	C680.999329,228.330795 728.118835,211.872131 778.377258,206.863052 
	C828.883362,201.829300 877.658447,208.584503 921.652405,236.042740 
	C968.941772,265.557770 993.721375,308.772949 996.081970,364.344482 
	C996.783325,380.856384 994.998535,397.473267 994.374146,414.042847 
	C994.301208,415.978058 994.364197,417.918427 994.364197,419.812225 
	C1002.212952,420.516144 1009.451111,420.883514 1016.607361,421.854828 
	C1051.753784,426.625244 1078.145020,450.552887 1085.126831,485.332642 
	C1087.388428,496.599030 1087.141846,508.463135 1087.152588,520.054626 
	C1087.160034,528.057617 1087.254395,528.711731 1095.546997,529.739502 
	C1116.343018,532.317017 1137.249512,534.332092 1157.866455,537.964905 
	C1243.131348,552.988953 1324.472168,579.695557 1400.513916,621.548523 
	C1437.157227,641.716736 1471.427002,665.233643 1500.716064,695.396301 
	C1523.775146,719.143188 1542.299561,745.676575 1550.496704,778.389221 
	C1550.957275,780.227051 1552.166626,781.877319 1553.539307,784.647766 
	C1566.126709,779.499390 1578.566772,774.855835 1590.639038,769.398743 
	C1650.811768,742.198669 1706.525635,707.835327 1756.467041,664.495483 
	C1784.243774,640.390442 1809.787109,614.135925 1828.535156,582.137756 
	C1833.552002,573.575012 1837.707275,564.335083 1840.917480,554.947571 
	C1843.006104,548.840210 1844.104126,541.691406 1843.168091,535.376404 
	C1839.495728,510.600281 1857.278320,490.956207 1882.085205,490.338623 
	C1921.451172,489.358673 1955.123535,502.959076 1983.400635,530.095703 
	C2013.473633,558.955811 2032.333862,594.693542 2045.615356,633.610107 
	C2057.286133,667.807312 2064.501709,703.007568 2066.218018,739.147095 
	C2067.227783,760.402954 2068.545654,781.778198 2067.410645,802.975830 
	C2064.470703,857.890320 2053.845703,911.296509 2031.011597,961.705505 
	C2028.102295,968.128113 2028.182739,972.505310 2033.041382,977.609131 
	C2057.625244,1003.432861 2069.668213,1035.245361 2075.588867,1069.651245 
	C2080.502441,1098.205444 2079.789551,1126.706787 2072.010010,1154.796265 
	C2068.068604,1169.026733 2062.119385,1182.395386 2053.631104,1194.518921 
	C2051.358398,1197.764893 2048.837402,1201.140259 2045.673340,1203.392334 
	C2040.116455,1207.347290 2039.438721,1211.652100 2041.383667,1217.967529 
	C2049.080078,1242.958374 2052.235596,1268.605713 2052.368896,1294.784668 
	C2052.918213,1402.501099 2016.649414,1497.023560 1949.952026,1580.475708 
	C1929.905273,1605.558472 1906.459595,1627.299683 1879.199707,1644.677368 
	C1870.526855,1650.206177 1861.161987,1652.856934 1851.030151,1653.834961 
	C1847.655518,1654.160645 1843.772217,1655.388672 1841.273315,1657.541504 
	C1830.607422,1666.729858 1818.705444,1669.864990 1804.277466,1666.386841 
M791.382690,1289.948242 
	C817.743774,1283.804810 839.149963,1299.315552 841.758667,1329.379517 
	C843.236206,1346.407715 842.190857,1363.316162 838.935059,1380.109863 
	C830.602966,1423.088379 814.022339,1462.927002 793.031921,1501.091431 
	C777.710571,1528.948608 759.881775,1555.064697 737.760742,1577.982544 
	C731.593262,1584.372192 724.698547,1590.677124 716.958313,1594.814819 
	C694.630432,1606.750000 671.143738,1616.225952 647.159241,1624.408081 
	C644.779907,1625.219604 642.573975,1626.539307 638.878357,1628.291138 
	C645.168091,1636.033081 650.372131,1643.305786 656.443420,1649.763062 
	C684.023682,1679.095703 718.100952,1698.340088 755.724182,1711.319458 
	C788.760132,1722.716187 822.705933,1729.020142 857.905457,1724.080322 
	C872.581848,1722.020630 886.685486,1718.211304 898.724731,1709.082153 
	C908.894104,1701.370850 913.812256,1691.049072 910.619080,1678.432373 
	C908.521057,1670.142578 905.248108,1662.001587 901.397522,1654.349365 
	C898.134338,1647.864746 893.101379,1642.295044 889.177795,1636.113403 
	C879.052612,1620.161133 882.306030,1599.091187 896.544556,1587.211670 
	C911.501709,1574.732544 932.594421,1575.234375 946.416199,1589.278076 
	C951.653381,1594.599243 957.581299,1597.495972 964.372375,1599.200073 
	C976.229370,1602.175171 987.600586,1596.399780 992.239624,1585.374146 
	C996.708130,1574.753906 993.146423,1563.019043 983.253601,1556.397705 
	C980.499146,1554.554321 977.360657,1553.296143 974.492798,1551.609009 
	C957.719482,1541.741455 951.195679,1521.502930 959.069031,1503.910889 
	C966.870728,1486.478882 986.617981,1477.792480 1004.974487,1483.687134 
	C1007.363770,1484.454468 1009.807800,1485.051392 1014.288940,1486.303467 
	C1011.168945,1480.501587 1008.925171,1476.531982 1006.865845,1472.468872 
	C976.879639,1413.305298 953.119995,1352.222656 948.386230,1284.118042 
	C945.910461,1283.488647 942.414978,1282.617920 938.928955,1281.710693 
	C912.768005,1274.901001 891.317627,1261.102905 876.289551,1238.378296 
	C865.675293,1222.328125 869.568787,1200.800781 884.568481,1189.013062 
	C899.883118,1176.977783 922.114258,1178.684448 935.369568,1192.962158 
	C937.859253,1195.643921 939.943604,1198.734131 942.603210,1201.220581 
	C955.296875,1213.086792 974.811157,1212.171631 986.476562,1199.312378 
	C997.685791,1186.955933 996.753052,1167.344360 984.370361,1156.111450 
	C980.035706,1152.179199 975.463989,1150.137451 969.024475,1150.963623 
	C953.644836,1152.936890 938.969299,1144.356323 932.114197,1130.527954 
	C925.020386,1116.218018 927.695312,1099.568481 938.640442,1087.899536 
	C944.108215,1082.070190 951.176270,1079.330078 958.271729,1076.389893 
	C1006.174744,1056.540161 1034.097534,1008.440430 1026.145264,957.362671 
	C1019.288757,913.322876 994.016174,882.959778 952.056702,868.588135 
	C909.932312,854.159973 871.753052,863.794067 839.250122,894.032654 
	C819.153625,912.729065 808.655518,936.562500 805.928650,963.734680 
	C804.436707,978.601196 799.291870,991.551514 787.995239,1001.603577 
	C780.030945,1008.690491 770.865967,1011.624146 760.244385,1008.666565 
	C758.343323,1008.137268 756.345276,1007.956360 753.484924,1006.647278 
	C752.781250,1005.939941 752.144775,1005.146240 751.363831,1004.538025 
	C735.520996,992.198547 729.412292,975.985352 731.286560,956.152832 
	C731.738159,951.373901 730.639832,946.211243 729.235046,941.531006 
	C716.567810,899.329956 699.815552,858.747925 679.903870,819.475952 
	C636.927307,734.712952 583.542175,657.592590 513.101318,593.047180 
	C489.436188,571.362610 464.475372,551.418518 435.304688,537.553284 
	C426.043304,533.151245 416.081360,530.177795 406.329163,526.878235 
	C402.955841,525.736877 399.680481,525.373291 396.228485,528.462524 
	C379.790955,543.172546 366.604218,560.646301 351.889343,578.168335 
	C356.287476,581.288879 360.021606,583.931335 363.748657,586.583679 
	C460.923767,655.738159 538.443726,742.426514 595.201904,847.363770 
	C645.094299,939.607178 674.941162,1037.991699 684.570312,1142.559082 
	C690.221741,1203.930786 688.619568,1265.016357 679.559937,1325.893799 
	C668.761536,1398.454712 647.742065,1468.026611 617.288086,1534.770386 
	C614.362305,1541.182617 612.268982,1547.974854 609.137085,1556.330200 
	C617.753357,1554.019653 624.580200,1552.711182 631.020813,1550.349731 
	C643.200989,1545.883423 654.964722,1540.214233 667.279297,1536.205688 
	C675.290466,1533.597900 681.406555,1529.172974 686.714050,1523.064331 
	C688.898987,1520.549683 691.155029,1518.090942 693.233826,1515.490967 
	C726.568726,1473.797485 750.058105,1427.116089 763.254211,1375.414307 
	C766.866821,1361.260132 768.896423,1346.886108 766.246704,1331.935303 
	C763.432129,1316.054932 769.814453,1303.278320 783.289124,1294.212891 
	C785.478333,1292.740112 787.591919,1291.155151 791.382690,1289.948242 
M127.916924,1294.983276 
	C128.635818,1299.928223 129.272766,1304.886841 130.086441,1309.816162 
	C137.133087,1352.504761 148.941940,1393.657593 169.781616,1431.852783 
	C190.665512,1470.129150 218.829849,1501.575684 257.182281,1522.994873 
	C287.542053,1539.950562 319.420746,1553.364502 353.166626,1562.216919 
	C400.366028,1574.598755 448.522217,1576.593872 496.963623,1576.601074 
	C506.451416,1576.602539 511.824219,1573.599121 516.683716,1565.305176 
	C572.263184,1470.445068 604.037781,1368.148682 611.397278,1258.625732 
	C615.840088,1192.507935 611.341980,1126.726196 596.214172,1061.958252 
	C555.514282,887.706421 462.090729,748.800171 316.433319,644.962952 
	C313.551422,642.908508 310.426086,641.195557 306.862762,638.980408 
	C303.976593,642.987427 301.575867,646.124756 299.379456,649.399170 
	C269.427032,694.053223 243.534973,740.949036 220.815445,789.689148 
	C162.431915,914.938721 125.566559,1045.417480 122.759361,1184.486938 
	C122.024681,1220.883423 123.110329,1257.104858 127.916924,1294.983276 
M1753.395874,1437.604858 
	C1789.008789,1480.642944 1817.803101,1527.843262 1838.613892,1580.114746 
	C1841.117554,1578.872803 1842.383667,1578.433105 1843.433838,1577.688843 
	C1846.693726,1575.378540 1849.943237,1573.042358 1853.070435,1570.557251 
	C1882.166260,1547.437378 1905.049438,1518.948364 1923.689453,1487.079834 
	C1953.897705,1435.432861 1972.499878,1380.025146 1976.580933,1319.990356 
	C1979.085449,1283.148315 1975.077759,1247.647949 1959.001343,1213.833618 
	C1949.341187,1193.515137 1958.915649,1171.536133 1979.884155,1162.791870 
	C1982.796509,1161.577515 1986.128662,1159.977783 1987.850952,1157.551636 
	C1994.050903,1148.818604 1998.863892,1139.334839 2000.782593,1128.592773 
	C2006.183838,1098.352661 2002.144653,1069.531494 1987.597778,1042.405029 
	C1981.815430,1031.622437 1973.869019,1023.474426 1961.912720,1018.516602 
	C1941.725708,1010.145752 1933.380493,986.062012 1944.332031,967.485229 
	C1949.773926,958.254028 1954.078613,948.654297 1958.304443,938.980042 
	C1964.029907,925.872742 1969.698975,912.654175 1974.075806,899.059570 
	C1992.127441,842.989441 1996.192139,785.509460 1989.547485,727.206970 
	C1985.831543,694.601562 1978.053711,662.960449 1964.203735,633.035889 
	C1955.889893,615.072815 1945.685303,598.317322 1931.075439,584.701965 
	C1926.573120,580.506042 1921.304443,577.132141 1915.764526,572.907471 
	C1914.142212,576.332703 1912.944702,578.285828 1912.255859,580.404419 
	C1905.496582,601.194275 1895.077637,620.093506 1882.710571,637.999756 
	C1861.548828,668.639709 1836.061523,695.394348 1807.995117,719.643860 
	C1730.090210,786.953796 1642.315308,836.776245 1543.765015,867.122009 
	C1538.227051,868.827271 1535.321411,871.540649 1533.987671,876.901672 
	C1532.299927,883.685669 1529.990601,890.317505 1528.368408,897.114929 
	C1507.170898,985.941223 1500.480469,1075.991943 1506.618164,1166.981934 
	C1507.869507,1185.529907 1511.431763,1203.940796 1514.394531,1222.339966 
	C1515.046997,1226.392090 1516.804321,1230.964966 1519.566406,1233.848145 
	C1527.890381,1242.536621 1532.173828,1252.465454 1531.917236,1264.445801 
	C1531.771973,1271.223267 1534.891357,1274.889893 1541.412109,1277.770874 
	C1560.581177,1286.239258 1579.882080,1294.699829 1598.085815,1305.009644 
	C1657.916016,1338.895142 1708.496094,1383.891968 1753.395874,1437.604858 
M477.629944,448.633057 
	C472.274628,453.820679 465.339844,457.517517 461.603729,465.086548 
	C467.954407,468.362488 473.916382,471.282349 479.735138,474.464111 
	C526.518188,500.045563 565.846191,534.917358 601.638428,573.859497 
	C673.839661,652.415039 729.660828,741.586853 771.813965,839.458496 
	C773.213806,842.708740 774.800659,845.878540 776.806763,850.168762 
	C812.508606,811.835144 855.646484,791.131897 906.001404,787.474243 
	C909.282166,772.759888 911.834045,759.036621 915.429077,745.592224 
	C929.602051,692.590088 949.676270,641.853271 975.172058,593.285828 
	C978.003113,587.892822 979.221313,583.422424 975.908569,577.570923 
	C970.690063,568.353271 972.149536,558.981079 977.625244,550.085510 
	C983.276855,540.904236 991.504028,534.945862 1001.263428,530.873535 
	C1004.299622,529.606567 1007.425903,528.555542 1010.914490,527.255188 
	C1011.330688,521.011902 1011.963074,515.064941 1012.073914,509.108246 
	C1012.288269,497.591644 1008.680847,494.640533 997.508362,496.958466 
	C985.777649,499.392273 975.867615,505.457306 966.746948,512.914856 
	C959.018494,519.233948 951.463806,525.765076 943.807434,532.172791 
	C933.538208,540.767395 922.009827,546.198120 908.334839,546.236450 
	C886.475708,546.297668 873.635132,531.391846 876.803833,509.790527 
	C878.391174,498.968842 882.723694,489.465240 889.186157,480.686127 
	C894.505981,473.459381 900.268738,466.291656 904.072144,458.262604 
	C919.589600,425.505402 924.950562,390.984009 919.467285,355.041809 
	C916.929749,338.408356 909.483093,324.105011 897.359497,312.285431 
	C883.867493,299.131714 867.553101,291.152557 849.632935,286.195312 
	C821.990356,278.548645 794.135498,280.434082 766.350769,285.104279 
	C727.494751,291.635406 691.220459,305.766052 656.658752,324.247711 
	C592.592041,358.506927 534.384399,401.302887 477.629944,448.633057 
M1232.819824,671.933533 
	C1208.671997,765.594299 1190.455200,860.350525 1179.321899,956.478149 
	C1173.529541,1006.490723 1169.711914,1056.619385 1168.425293,1106.921631 
	C1167.214478,1154.257080 1168.703735,1201.535278 1174.171265,1248.615967 
	C1178.289917,1284.081543 1184.375488,1319.170532 1195.811523,1353.119995 
	C1202.754028,1373.729614 1211.277832,1393.585815 1224.940308,1410.822876 
	C1230.967651,1418.427246 1237.926025,1424.939575 1246.869995,1429.859009 
	C1264.728882,1418.148682 1282.500366,1406.703247 1298.171021,1394.089233 
	C1293.677490,1380.425537 1289.090820,1368.602295 1285.917236,1356.411133 
	C1277.905518,1325.634277 1274.862793,1294.094727 1274.062744,1262.421021 
	C1273.314575,1232.797974 1272.647461,1203.094238 1273.968140,1173.516357 
	C1275.869141,1130.946411 1278.734619,1088.375732 1282.773560,1045.956299 
	C1287.794067,993.225586 1296.045532,940.888062 1306.204590,888.884583 
	C1319.056152,823.098511 1334.484741,757.997314 1358.416138,695.190186 
	C1359.444702,692.490723 1360.025513,689.620544 1361.069946,685.927795 
	C1322.814209,665.272156 1283.524658,648.851013 1242.099365,636.126282 
	C1238.925049,648.481262 1236.115112,659.417847 1232.819824,671.933533 
M1354.161133,1316.735718 
	C1356.133667,1325.515259 1356.397705,1334.781494 1361.119019,1343.712402 
	C1390.492920,1318.035156 1417.560181,1291.484009 1443.222900,1263.470947 
	C1446.170410,1260.253418 1445.955566,1257.294067 1444.880737,1253.458618 
	C1435.384644,1219.575073 1431.820068,1184.766602 1430.433472,1149.811157 
	C1427.267578,1069.990112 1432.359253,990.691162 1448.132080,912.256592 
	C1454.634399,879.921936 1462.348267,847.905334 1476.356445,817.778076 
	C1477.438843,815.450256 1477.800781,812.698181 1478.073730,810.098755 
	C1479.195679,799.412109 1475.997070,789.694824 1471.021118,780.438538 
	C1461.571289,762.860779 1448.141479,748.598511 1433.376587,735.471985 
	C1431.241455,733.573792 1428.854248,731.958923 1425.665039,729.506531 
	C1423.551270,735.354736 1421.667236,740.250793 1420.003174,745.220398 
	C1403.807983,793.584656 1391.643555,842.990784 1381.791748,892.998962 
	C1371.362061,945.939819 1362.730469,999.170532 1357.646240,1052.893433 
	C1354.070679,1090.676514 1350.703979,1128.523682 1348.921875,1166.421143 
	C1346.589355,1216.019653 1346.597778,1265.671631 1354.161133,1316.735718 
M1014.749695,685.704163 
	C1000.049500,722.134460 987.470581,759.202393 980.393860,798.237732 
	C1052.031006,827.688965 1092.174561,881.031494 1103.080811,957.116760 
	C1116.738403,842.304138 1138.829834,729.307678 1169.986206,617.098633 
	C1132.673462,609.093323 1095.279175,604.097900 1056.966309,602.509644 
	C1039.681763,628.179626 1027.157837,656.052734 1014.749695,685.704163 
M1109.815308,1320.987793 
	C1108.581909,1314.788574 1107.216797,1308.612183 1106.135010,1302.386719 
	C1093.297607,1228.516235 1091.853394,1154.026489 1094.320435,1079.352417 
	C1094.933838,1060.785767 1096.382080,1042.246704 1097.446533,1023.694885 
	C1086.612061,1056.517700 1068.947266,1085.021729 1043.993896,1109.295532 
	C1045.588135,1111.590698 1046.822876,1113.531494 1048.216553,1115.350464 
	C1084.067505,1162.142700 1073.735840,1232.565186 1022.607483,1266.597778 
	C1019.968872,1268.354126 1017.607056,1270.526611 1015.243896,1272.403931 
	C1017.520325,1277.380127 1019.613403,1281.200684 1021.026978,1285.257812 
	C1022.439941,1289.313477 1023.353699,1293.570679 1024.177002,1297.799805 
	C1034.693115,1351.817017 1052.654663,1403.090576 1080.811157,1450.536011 
	C1089.492676,1465.165161 1099.001709,1479.052734 1114.875977,1487.414551 
	C1119.207886,1489.696289 1122.423462,1490.654175 1126.802368,1488.946533 
	C1137.958130,1484.595825 1149.264648,1480.619873 1160.332764,1476.062134 
	C1164.792603,1474.225464 1168.787842,1471.261108 1173.152466,1468.718018 
	C1171.999146,1466.423706 1171.360840,1464.892212 1170.496338,1463.501587 
	C1169.446899,1461.813477 1168.281616,1460.183960 1167.037354,1458.632690 
	C1153.180908,1441.356201 1142.536621,1422.215576 1134.012695,1401.841187 
	C1123.314331,1376.269653 1115.816284,1349.729858 1109.815308,1320.987793 
z"/>
<path fill="#AE9FB9" opacity="1.000000" stroke="none" 
	d="
M127.825806,1294.097168 
	C123.110329,1257.104858 122.024681,1220.883423 122.759361,1184.486938 
	C125.566559,1045.417480 162.431915,914.938721 220.815445,789.689148 
	C243.534973,740.949036 269.427032,694.053223 299.379456,649.399170 
	C301.575867,646.124756 303.976593,642.987427 306.862762,638.980408 
	C310.426086,641.195557 313.551422,642.908508 316.433319,644.962952 
	C462.090729,748.800171 555.514282,887.706421 596.214172,1061.958252 
	C611.341980,1126.726196 615.840088,1192.507935 611.397278,1258.625732 
	C604.037781,1368.148682 572.263184,1470.445068 516.683716,1565.305176 
	C511.824219,1573.599121 506.451416,1576.602539 496.963623,1576.601074 
	C448.522217,1576.593872 400.366028,1574.598755 353.166626,1562.216919 
	C319.420746,1553.364502 287.542053,1539.950562 257.182281,1522.994873 
	C218.829849,1501.575684 190.665512,1470.129150 169.781616,1431.852783 
	C148.941940,1393.657593 137.133087,1352.504761 130.086441,1309.816162 
	C129.272766,1304.886841 128.635818,1299.928223 127.825806,1294.097168 
M295.627838,1220.486084 
	C297.350311,1226.166870 298.203827,1232.315063 300.959991,1237.439941 
	C308.877533,1252.162354 322.629944,1256.845581 338.320099,1250.882324 
	C348.184845,1247.132935 356.439697,1241.062988 363.087280,1232.853027 
	C364.763916,1230.782349 366.234222,1228.540649 367.959412,1226.513672 
	C383.117004,1208.704956 409.448120,1211.162231 421.002777,1231.464722 
	C422.648651,1234.356567 423.899567,1237.482422 425.648010,1240.305176 
	C438.701416,1261.379395 468.241272,1264.350586 484.911163,1246.008179 
	C496.513489,1233.241821 497.516388,1218.506470 490.703308,1203.187378 
	C458.019958,1129.699585 359.570221,1117.247192 308.839508,1180.039307 
	C299.667267,1191.392334 294.321472,1203.853882 295.627838,1220.486084 
z"/>
<path fill="#AE9FB9" opacity="1.000000" stroke="none" 
	d="
M1752.935425,1437.060791 
	C1708.496094,1383.891968 1657.916016,1338.895142 1598.085815,1305.009644 
	C1579.882080,1294.699829 1560.581177,1286.239258 1541.412109,1277.770874 
	C1534.891357,1274.889893 1531.771973,1271.223267 1531.917236,1264.445801 
	C1532.173828,1252.465454 1527.890381,1242.536621 1519.566406,1233.848145 
	C1516.804321,1230.964966 1515.046997,1226.392090 1514.394531,1222.339966 
	C1511.431763,1203.940796 1507.869507,1185.529907 1506.618164,1166.981934 
	C1500.480469,1075.991943 1507.170898,985.941223 1528.368408,897.114929 
	C1529.990601,890.317505 1532.299927,883.685669 1533.987671,876.901672 
	C1535.321411,871.540649 1538.227051,868.827271 1543.765015,867.122009 
	C1642.315308,836.776245 1730.090210,786.953796 1807.995117,719.643860 
	C1836.061523,695.394348 1861.548828,668.639709 1882.710571,637.999756 
	C1895.077637,620.093506 1905.496582,601.194275 1912.255859,580.404419 
	C1912.944702,578.285828 1914.142212,576.332703 1915.764526,572.907471 
	C1921.304443,577.132141 1926.573120,580.506042 1931.075439,584.701965 
	C1945.685303,598.317322 1955.889893,615.072815 1964.203735,633.035889 
	C1978.053711,662.960449 1985.831543,694.601562 1989.547485,727.206970 
	C1996.192139,785.509460 1992.127441,842.989441 1974.075806,899.059570 
	C1969.698975,912.654175 1964.029907,925.872742 1958.304443,938.980042 
	C1954.078613,948.654297 1949.773926,958.254028 1944.332031,967.485229 
	C1933.380493,986.062012 1941.725708,1010.145752 1961.912720,1018.516602 
	C1973.869019,1023.474426 1981.815430,1031.622437 1987.597778,1042.405029 
	C2002.144653,1069.531494 2006.183838,1098.352661 2000.782593,1128.592773 
	C1998.863892,1139.334839 1994.050903,1148.818604 1987.850952,1157.551636 
	C1986.128662,1159.977783 1982.796509,1161.577515 1979.884155,1162.791870 
	C1958.915649,1171.536133 1949.341187,1193.515137 1959.001343,1213.833618 
	C1975.077759,1247.647949 1979.085449,1283.148315 1976.580933,1319.990356 
	C1972.499878,1380.025146 1953.897705,1435.432861 1923.689453,1487.079834 
	C1905.049438,1518.948364 1882.166260,1547.437378 1853.070435,1570.557251 
	C1849.943237,1573.042358 1846.693726,1575.378540 1843.433838,1577.688843 
	C1842.383667,1578.433105 1841.117554,1578.872803 1838.613892,1580.114746 
	C1817.803101,1527.843262 1789.008789,1480.642944 1752.935425,1437.060791 
z"/>
<path fill="#AE9FB9" opacity="1.000000" stroke="none" 
	d="
M478.173096,448.173767 
	C534.384399,401.302887 592.592041,358.506927 656.658752,324.247711 
	C691.220459,305.766052 727.494751,291.635406 766.350769,285.104279 
	C794.135498,280.434082 821.990356,278.548645 849.632935,286.195312 
	C867.553101,291.152557 883.867493,299.131714 897.359497,312.285431 
	C909.483093,324.105011 916.929749,338.408356 919.467285,355.041809 
	C924.950562,390.984009 919.589600,425.505402 904.072144,458.262604 
	C900.268738,466.291656 894.505981,473.459381 889.186157,480.686127 
	C882.723694,489.465240 878.391174,498.968842 876.803833,509.790527 
	C873.635132,531.391846 886.475708,546.297668 908.334839,546.236450 
	C922.009827,546.198120 933.538208,540.767395 943.807434,532.172791 
	C951.463806,525.765076 959.018494,519.233948 966.746948,512.914856 
	C975.867615,505.457306 985.777649,499.392273 997.508362,496.958466 
	C1008.680847,494.640533 1012.288269,497.591644 1012.073914,509.108246 
	C1011.963074,515.064941 1011.330688,521.011902 1010.914490,527.255188 
	C1007.425903,528.555542 1004.299622,529.606567 1001.263428,530.873535 
	C991.504028,534.945862 983.276855,540.904236 977.625244,550.085510 
	C972.149536,558.981079 970.690063,568.353271 975.908569,577.570923 
	C979.221313,583.422424 978.003113,587.892822 975.172058,593.285828 
	C949.676270,641.853271 929.602051,692.590088 915.429077,745.592224 
	C911.834045,759.036621 909.282166,772.759888 906.001404,787.474243 
	C855.646484,791.131897 812.508606,811.835144 776.806763,850.168762 
	C774.800659,845.878540 773.213806,842.708740 771.813965,839.458496 
	C729.660828,741.586853 673.839661,652.415039 601.638428,573.859497 
	C565.846191,534.917358 526.518188,500.045563 479.735138,474.464111 
	C473.916382,471.282349 467.954407,468.362488 461.603729,465.086548 
	C465.339844,457.517517 472.274628,453.820679 478.173096,448.173767 
z"/>
<path fill="#AE9FB9" opacity="1.000000" stroke="none" 
	d="
M754.391968,1007.614624 
	C756.345276,1007.956360 758.343323,1008.137268 760.244385,1008.666565 
	C770.865967,1011.624146 780.030945,1008.690491 787.995239,1001.603577 
	C799.291870,991.551514 804.436707,978.601196 805.928650,963.734680 
	C808.655518,936.562500 819.153625,912.729065 839.250122,894.032654 
	C871.753052,863.794067 909.932312,854.159973 952.056702,868.588135 
	C994.016174,882.959778 1019.288757,913.322876 1026.145264,957.362671 
	C1034.097534,1008.440430 1006.174744,1056.540161 958.271729,1076.389893 
	C951.176270,1079.330078 944.108215,1082.070190 938.640442,1087.899536 
	C927.695312,1099.568481 925.020386,1116.218018 932.114197,1130.527954 
	C938.969299,1144.356323 953.644836,1152.936890 969.024475,1150.963623 
	C975.463989,1150.137451 980.035706,1152.179199 984.370361,1156.111450 
	C996.753052,1167.344360 997.685791,1186.955933 986.476562,1199.312378 
	C974.811157,1212.171631 955.296875,1213.086792 942.603210,1201.220581 
	C939.943604,1198.734131 937.859253,1195.643921 935.369568,1192.962158 
	C922.114258,1178.684448 899.883118,1176.977783 884.568481,1189.013062 
	C869.568787,1200.800781 865.675293,1222.328125 876.289551,1238.378296 
	C891.317627,1261.102905 912.768005,1274.901001 938.928955,1281.710693 
	C942.414978,1282.617920 945.910461,1283.488647 948.386230,1284.118042 
	C953.119995,1352.222656 976.879639,1413.305298 1006.865845,1472.468872 
	C1008.925171,1476.531982 1011.168945,1480.501587 1014.288940,1486.303467 
	C1009.807800,1485.051392 1007.363770,1484.454468 1004.974487,1483.687134 
	C986.617981,1477.792480 966.870728,1486.478882 959.069031,1503.910889 
	C951.195679,1521.502930 957.719482,1541.741455 974.492798,1551.609009 
	C977.360657,1553.296143 980.499146,1554.554321 983.253601,1556.397705 
	C993.146423,1563.019043 996.708130,1574.753906 992.239624,1585.374146 
	C987.600586,1596.399780 976.229370,1602.175171 964.372375,1599.200073 
	C957.581299,1597.495972 951.653381,1594.599243 946.416199,1589.278076 
	C932.594421,1575.234375 911.501709,1574.732544 896.544556,1587.211670 
	C882.306030,1599.091187 879.052612,1620.161133 889.177795,1636.113403 
	C893.101379,1642.295044 898.134338,1647.864746 901.397522,1654.349365 
	C905.248108,1662.001587 908.521057,1670.142578 910.619080,1678.432373 
	C913.812256,1691.049072 908.894104,1701.370850 898.724731,1709.082153 
	C886.685486,1718.211304 872.581848,1722.020630 857.905457,1724.080322 
	C822.705933,1729.020142 788.760132,1722.716187 755.724182,1711.319458 
	C718.100952,1698.340088 684.023682,1679.095703 656.443420,1649.763062 
	C650.372131,1643.305786 645.168091,1636.033081 638.878357,1628.291138 
	C642.573975,1626.539307 644.779907,1625.219604 647.159241,1624.408081 
	C671.143738,1616.225952 694.630432,1606.750000 716.958313,1594.814819 
	C724.698547,1590.677124 731.593262,1584.372192 737.760742,1577.982544 
	C759.881775,1555.064697 777.710571,1528.948608 793.031921,1501.091431 
	C814.022339,1462.927002 830.602966,1423.088379 838.935059,1380.109863 
	C842.190857,1363.316162 843.236206,1346.407715 841.758667,1329.379517 
	C839.149963,1299.315552 817.743774,1283.804810 790.478394,1288.954590 
	C788.493530,1272.690918 787.491638,1257.414551 786.317444,1242.151611 
	C782.973877,1198.691528 779.868713,1155.209717 776.071472,1111.788696 
	C773.279175,1079.859375 767.126648,1048.531494 756.438416,1018.191772 
	C755.258179,1014.841553 755.050659,1011.148621 754.391968,1007.614624 
z"/>
<path fill="#F3EEED" opacity="1.000000" stroke="none" 
	d="
M753.938477,1007.130981 
	C755.050659,1011.148621 755.258179,1014.841553 756.438416,1018.191772 
	C767.126648,1048.531494 773.279175,1079.859375 776.071472,1111.788696 
	C779.868713,1155.209717 782.973877,1198.691528 786.317444,1242.151611 
	C787.491638,1257.414551 788.493530,1272.690918 789.657227,1288.791504 
	C787.591919,1291.155151 785.478333,1292.740112 783.289124,1294.212891 
	C769.814453,1303.278320 763.432129,1316.054932 766.246704,1331.935303 
	C768.896423,1346.886108 766.866821,1361.260132 763.254211,1375.414307 
	C750.058105,1427.116089 726.568726,1473.797485 693.233826,1515.490967 
	C691.155029,1518.090942 688.898987,1520.549683 686.714050,1523.064331 
	C681.406555,1529.172974 675.290466,1533.597900 667.279297,1536.205688 
	C654.964722,1540.214233 643.200989,1545.883423 631.020813,1550.349731 
	C624.580200,1552.711182 617.753357,1554.019653 609.137085,1556.330200 
	C612.268982,1547.974854 614.362305,1541.182617 617.288086,1534.770386 
	C647.742065,1468.026611 668.761536,1398.454712 679.559937,1325.893799 
	C688.619568,1265.016357 690.221741,1203.930786 684.570312,1142.559082 
	C674.941162,1037.991699 645.094299,939.607178 595.201904,847.363770 
	C538.443726,742.426514 460.923767,655.738159 363.748657,586.583679 
	C360.021606,583.931335 356.287476,581.288879 351.889343,578.168335 
	C366.604218,560.646301 379.790955,543.172546 396.228485,528.462524 
	C399.680481,525.373291 402.955841,525.736877 406.329163,526.878235 
	C416.081360,530.177795 426.043304,533.151245 435.304688,537.553284 
	C464.475372,551.418518 489.436188,571.362610 513.101318,593.047180 
	C583.542175,657.592590 636.927307,734.712952 679.903870,819.475952 
	C699.815552,858.747925 716.567810,899.329956 729.235046,941.531006 
	C730.639832,946.211243 731.738159,951.373901 731.286560,956.152832 
	C729.412292,975.985352 735.520996,992.198547 751.363831,1004.538025 
	C752.144775,1005.146240 752.781250,1005.939941 753.938477,1007.130981 
z"/>
<path fill="#AD9EB8" opacity="1.000000" stroke="none" 
	d="
M1233.062500,671.144043 
	C1236.115112,659.417847 1238.925049,648.481262 1242.099365,636.126282 
	C1283.524658,648.851013 1322.814209,665.272156 1361.069946,685.927795 
	C1360.025513,689.620544 1359.444702,692.490723 1358.416138,695.190186 
	C1334.484741,757.997314 1319.056152,823.098511 1306.204590,888.884583 
	C1296.045532,940.888062 1287.794067,993.225586 1282.773560,1045.956299 
	C1278.734619,1088.375732 1275.869141,1130.946411 1273.968140,1173.516357 
	C1272.647461,1203.094238 1273.314575,1232.797974 1274.062744,1262.421021 
	C1274.862793,1294.094727 1277.905518,1325.634277 1285.917236,1356.411133 
	C1289.090820,1368.602295 1293.677490,1380.425537 1298.171021,1394.089233 
	C1282.500366,1406.703247 1264.728882,1418.148682 1246.869995,1429.859009 
	C1237.926025,1424.939575 1230.967651,1418.427246 1224.940308,1410.822876 
	C1211.277832,1393.585815 1202.754028,1373.729614 1195.811523,1353.119995 
	C1184.375488,1319.170532 1178.289917,1284.081543 1174.171265,1248.615967 
	C1168.703735,1201.535278 1167.214478,1154.257080 1168.425293,1106.921631 
	C1169.711914,1056.619385 1173.529541,1006.490723 1179.321899,956.478149 
	C1190.455200,860.350525 1208.671997,765.594299 1233.062500,671.144043 
z"/>
<path fill="#F3EEED" opacity="1.000000" stroke="none" 
	d="
M1354.065430,1315.869385 
	C1346.597778,1265.671631 1346.589355,1216.019653 1348.921875,1166.421143 
	C1350.703979,1128.523682 1354.070679,1090.676514 1357.646240,1052.893433 
	C1362.730469,999.170532 1371.362061,945.939819 1381.791748,892.998962 
	C1391.643555,842.990784 1403.807983,793.584656 1420.003174,745.220398 
	C1421.667236,740.250793 1423.551270,735.354736 1425.665039,729.506531 
	C1428.854248,731.958923 1431.241455,733.573792 1433.376587,735.471985 
	C1448.141479,748.598511 1461.571289,762.860779 1471.021118,780.438538 
	C1475.997070,789.694824 1479.195679,799.412109 1478.073730,810.098755 
	C1477.800781,812.698181 1477.438843,815.450256 1476.356445,817.778076 
	C1462.348267,847.905334 1454.634399,879.921936 1448.132080,912.256592 
	C1432.359253,990.691162 1427.267578,1069.990112 1430.433472,1149.811157 
	C1431.820068,1184.766602 1435.384644,1219.575073 1444.880737,1253.458618 
	C1445.955566,1257.294067 1446.170410,1260.253418 1443.222900,1263.470947 
	C1417.560181,1291.484009 1390.492920,1318.035156 1361.119019,1343.712402 
	C1356.397705,1334.781494 1356.133667,1325.515259 1354.065430,1315.869385 
z"/>
<path fill="#F4EFED" opacity="1.000000" stroke="none" 
	d="
M1015.084595,685.017456 
	C1027.157837,656.052734 1039.681763,628.179626 1056.966309,602.509644 
	C1095.279175,604.097900 1132.673462,609.093323 1169.986206,617.098633 
	C1138.829834,729.307678 1116.738403,842.304138 1103.080811,957.116760 
	C1092.174561,881.031494 1052.031006,827.688965 980.393860,798.237732 
	C987.470581,759.202393 1000.049500,722.134460 1015.084595,685.017456 
z"/>
<path fill="#F2EDEC" opacity="1.000000" stroke="none" 
	d="
M1109.946533,1321.823242 
	C1115.816284,1349.729858 1123.314331,1376.269653 1134.012695,1401.841187 
	C1142.536621,1422.215576 1153.180908,1441.356201 1167.037354,1458.632690 
	C1168.281616,1460.183960 1169.446899,1461.813477 1170.496338,1463.501587 
	C1171.360840,1464.892212 1171.999146,1466.423706 1173.152466,1468.718018 
	C1168.787842,1471.261108 1164.792603,1474.225464 1160.332764,1476.062134 
	C1149.264648,1480.619873 1137.958130,1484.595825 1126.802368,1488.946533 
	C1122.423462,1490.654175 1119.207886,1489.696289 1114.875977,1487.414551 
	C1099.001709,1479.052734 1089.492676,1465.165161 1080.811157,1450.536011 
	C1052.654663,1403.090576 1034.693115,1351.817017 1024.177002,1297.799805 
	C1023.353699,1293.570679 1022.439941,1289.313477 1021.026978,1285.257812 
	C1019.613403,1281.200684 1017.520325,1277.380127 1015.243896,1272.403931 
	C1017.607056,1270.526611 1019.968872,1268.354126 1022.607483,1266.597778 
	C1073.735840,1232.565186 1084.067505,1162.142700 1048.216553,1115.350464 
	C1046.822876,1113.531494 1045.588135,1111.590698 1043.993896,1109.295532 
	C1068.947266,1085.021729 1086.612061,1056.517700 1097.446533,1023.694885 
	C1096.382080,1042.246704 1094.933838,1060.785767 1094.320435,1079.352417 
	C1091.853394,1154.026489 1093.297607,1228.516235 1106.135010,1302.386719 
	C1107.216797,1308.612183 1108.581909,1314.788574 1109.946533,1321.823242 
z"/>
<path fill="#464868" opacity="1.000000" stroke="none" 
	d="
M295.574341,1219.582275 
	C294.321472,1203.853882 299.667267,1191.392334 308.839508,1180.039307 
	C359.570221,1117.247192 458.019958,1129.699585 490.703308,1203.187378 
	C497.516388,1218.506470 496.513489,1233.241821 484.911163,1246.008179 
	C468.241272,1264.350586 438.701416,1261.379395 425.648010,1240.305176 
	C423.899567,1237.482422 422.648651,1234.356567 421.002777,1231.464722 
	C409.448120,1211.162231 383.117004,1208.704956 367.959412,1226.513672 
	C366.234222,1228.540649 364.763916,1230.782349 363.087280,1232.853027 
	C356.439697,1241.062988 348.184845,1247.132935 338.320099,1250.882324 
	C322.629944,1256.845581 308.877533,1252.162354 300.959991,1237.439941 
	C298.203827,1232.315063 297.350311,1226.166870 295.574341,1219.582275 
z"/>
</svg>